<svg width="110" height="35" viewBox="0 0 110 35" fill="none" xmlns="http://www.w3.org/2000/svg">
<path d="M9.19292 28H1.81011V7.17355H9.25394C11.3488 7.17355 13.1521 7.59049 14.6639 8.42436C16.1757 9.25145 17.3384 10.4412 18.152 11.9937C18.9723 13.5462 19.3824 15.4038 19.3824 17.5664C19.3824 19.7359 18.9723 21.6002 18.152 23.1595C17.3384 24.7188 16.169 25.9153 14.6436 26.7492C13.125 27.5831 11.3081 28 9.19292 28ZM6.21336 24.2272H9.00988C10.3115 24.2272 11.4064 23.9967 12.2945 23.5357C13.1894 23.068 13.8606 22.3459 14.308 21.3697C14.7622 20.3867 14.9893 19.1189 14.9893 17.5664C14.9893 16.0275 14.7622 14.7699 14.308 13.7937C13.8606 12.8174 13.1928 12.0988 12.3047 11.6378C11.4166 11.1768 10.3217 10.9463 9.02005 10.9463H6.21336V24.2272ZM24.076 28V7.17355H32.2927C33.8655 7.17355 35.2078 7.4549 36.3197 8.01759C37.4383 8.57351 38.2891 9.36331 38.8721 10.387C39.4619 11.4039 39.7569 12.6005 39.7569 13.9767C39.7569 15.3597 39.4586 16.5495 38.862 17.5461C38.2654 18.5359 37.401 19.2952 36.2688 19.824C35.1434 20.3528 33.7808 20.6172 32.1808 20.6172H26.6793V17.0783H31.469C32.3096 17.0783 33.0079 16.9631 33.5638 16.7326C34.1197 16.5021 34.5333 16.1563 34.8045 15.6953C35.0824 15.2343 35.2214 14.6614 35.2214 13.9767C35.2214 13.2852 35.0824 12.7022 34.8045 12.2276C34.5333 11.7531 34.1164 11.3938 33.5537 11.1497C32.9977 10.8989 32.2961 10.7734 31.4486 10.7734H28.4792V28H24.076ZM35.3231 18.5223L40.4992 28H35.6383L30.5741 18.5223H35.3231ZM92.6579 28V7.17355H100.875C102.454 7.17355 103.8 7.47524 104.912 8.07861C106.024 8.6752 106.871 9.50568 107.454 10.5701C108.044 11.6276 108.339 12.8479 108.339 14.231C108.339 15.614 108.04 16.8343 107.444 17.8919C106.847 18.9494 105.983 19.7731 104.851 20.363C103.725 20.9528 102.363 21.2477 100.763 21.2477H95.5256V17.719H100.051C100.898 17.719 101.597 17.5732 102.146 17.2817C102.702 16.9834 103.115 16.5733 103.386 16.0512C103.664 15.5224 103.803 14.9157 103.803 14.231C103.803 13.5394 103.664 12.9361 103.386 12.4208C103.115 11.8988 102.702 11.4954 102.146 11.2107C101.59 10.9192 100.885 10.7734 100.03 10.7734H97.0611V28H92.6579Z" fill="#2B2D42"/>
<rect x="47.7705" y="8.89167" width="36.5197" height="16.3682" rx="8.18409" stroke="#2B2D42" stroke-width="3.78333"/>
</svg>
